<svg width="118" height="69" viewBox="0 0 118 69" fill="none" xmlns="http://www.w3.org/2000/svg">
<path fill-rule="evenodd" clip-rule="evenodd" d="M54.0195 28.7394L65.5883 13.8217C65.5883 13.8217 52.6799 16.9879 48.9657 15.8919C45.2515 14.7959 49.3919 0 49.3919 0C49.3919 0 37.336 8.21996 34.4742 8.21996C31.6125 8.21996 28.8725 2.98354 28.8725 2.98354L7.86591 27.5825L17.6081 25.9994C17.6081 25.9994 23.149 25.5732 26.4978 25.9994C29.8467 26.4257 35.4485 28.3132 35.4485 28.3132C35.4485 28.3132 44.0946 31.6012 46.5302 33.1843C48.9657 34.7674 53.0453 37.3856 53.0453 37.3856L53.3139 37.5558C53.0491 37.7487 52.8294 37.9199 52.6799 38.0554C51.7057 38.9383 49.6964 41.4043 49.6964 41.4043L44.7035 38.0554L38.7364 34.7674L32.7085 32.5145C32.7085 32.5145 29.1769 31.4185 24.7929 30.8705C20.409 30.3225 17.6081 30.5965 17.6081 30.5965C17.6081 30.5965 14.6245 30.5661 10.4232 32.5145C6.22191 34.463 4.94325 36.4114 4.94325 36.4114C4.94325 36.4114 2.50771 39.0905 1.53349 41.7696C0.559273 44.4487 0.0721642 47.3105 0.0721642 47.3105C0.0721642 47.3105 -0.293167 50.7811 0.620162 53.7038C1.53349 56.6264 3.42104 59.7317 3.42104 59.7317C3.42104 59.7317 3.78641 60.706 6.40458 63.2024C9.02275 65.6988 11.641 66.9166 11.641 66.9166C11.641 66.9166 14.8072 68.865 20.6525 68.9868C26.4978 69.1086 28.435 68.3475 28.435 68.3475C28.435 68.3475 31.1863 67.8908 35.4485 65.2117C39.7107 62.5326 41.1111 61.0713 41.1111 61.0713C41.1111 61.0713 42.9986 59.6708 45.3733 57.0526C47.748 54.4344 48.9657 52.6078 48.9657 52.6078L51.2186 49.3807L54.5675 52.2424C54.5675 52.2424 58.5252 55.6522 60.5955 57.0526C62.6657 58.4531 66.5625 60.5233 69.2416 61.5584C71.9207 62.5935 74.1737 63.4459 76.6701 63.8722C79.1665 64.2984 80.4451 64.481 84.4029 64.2984C88.3607 64.1157 90.8267 63.8417 93.658 62.8979C96.4893 61.9542 99.138 60.8277 101.573 59.3664C104.009 57.9051 105.044 57.1135 107.48 55.1651C109.915 53.2167 112.351 49.9896 112.351 49.9896L117.648 40.8563C117.648 40.8563 111.864 47.0973 110.829 48.0411C109.793 48.9849 105.531 52.2424 105.531 52.2424C105.531 52.2424 103.826 53.5515 99.8686 55.7435C96.8329 57.4248 96.5018 57.53 95.2072 57.941C94.814 58.0659 94.3318 58.219 93.658 58.4531C90.7658 59.4577 88.178 59.8535 84.4029 60.0362C81.2372 60.1894 79.4844 59.8715 77.7084 59.5495C77.3666 59.4875 77.0239 59.4254 76.6701 59.3664C74.9139 59.0737 72.9624 58.273 71.2225 57.5591L71.2221 57.5589C70.7904 57.3818 70.3717 57.21 69.9723 57.0526C67.963 56.2611 65.5883 54.7389 63.4572 53.2167C61.3261 51.6944 58.5252 49.3807 58.5252 49.3807C58.5252 49.3807 58.0685 48.8327 55.7548 46.7625C53.441 44.6922 54.2326 45.3011 54.2326 45.3011C54.2326 45.3011 55.907 42.622 57.1248 41.7696C57.4274 41.5577 57.9219 41.2218 58.4941 40.8365L58.5252 40.8563L65.5883 43.6571C65.5883 43.6571 71.4336 45.1185 72.5905 45.3011C73.7474 45.4838 79.136 45.5142 80.8105 45.3011C82.4849 45.088 86.6253 44.1138 88.178 43.6571C89.7307 43.2005 91.8922 41.7696 91.8922 41.7696C91.8922 41.7696 89.6393 38.4816 88.178 37.3856C86.7167 36.2896 83.3678 34.0976 80.8105 33.1843C78.2532 32.271 76.6701 31.9056 73.7474 31.7839C70.8247 31.6621 67.6585 32.2101 67.6585 32.2101L60.5955 33.7323L57.6119 34.7674C57.6119 34.7674 57.5221 34.822 57.3662 34.9177L55.907 34.0976C55.907 34.0976 51.2186 30.8705 48.9657 29.8963C47.6775 29.3393 45.6328 28.3641 43.8334 27.506L43.8332 27.5059C42.4857 26.8632 41.2758 26.2862 40.624 25.9994C39.6909 25.5889 38.0945 25.0869 36.5638 24.6055L36.5636 24.6054C35.5971 24.3015 34.6568 24.0058 33.9262 23.7466C33.5194 23.6022 33.1379 23.4522 32.7545 23.3013C31.3593 22.7525 29.9378 22.1934 27.1676 21.859C26.398 21.7661 25.8251 21.6935 25.382 21.6373L25.3819 21.6373C24.5185 21.5279 24.148 21.4809 23.7763 21.4684C23.4969 21.4591 23.2168 21.4692 22.7261 21.487L22.5401 21.4937C20.8352 21.5546 17.6081 21.859 17.6081 21.859L28.6289 8.82885C28.6289 8.82885 30.5165 11.8733 32.7085 12.2386C34.8079 12.5885 36.6839 11.933 38.069 11.4491L38.2493 11.3862C39.6498 10.8991 43.7902 8.21996 43.7902 8.21996C43.7902 8.21996 43.4249 12.7866 43.4249 13.8217C43.4249 14.8568 43.7902 17.2315 45.008 18.1448C46.2257 19.0581 47.4435 19.7279 49.3311 19.9106C51.2186 20.0932 57.6119 19.119 57.6119 19.119L54.0195 28.7394ZM62.9602 38.3123C62.9602 38.3123 65.9149 35.417 72.9328 35.8052C79.9507 36.1933 85.4289 39.9196 85.4289 39.9196C85.4289 39.9196 81.2129 41.4535 74.7447 41.109C68.2764 40.7644 62.9602 38.3123 62.9602 38.3123ZM34.0979 38.6033C29.8357 36.7157 23.1491 36.046 23.1491 36.046C23.1491 36.046 24.7209 41.0997 24.8731 43.8702C25.0254 46.6406 24.4278 50.5375 23.9407 51.8161C23.4536 53.0948 22.114 56.3828 21.3833 57.4788C20.6527 58.5748 16.9994 62.4716 16.9994 62.4716C16.9994 62.4716 22.5402 63.8721 27.8984 62.1063C33.2566 60.3405 36.3011 58.0877 38.9802 55.6521C41.6593 53.2166 46.8957 45.5446 46.8957 45.5446C46.8957 45.5446 43.1703 43.0849 40.9174 41.8304C38.955 40.7376 36.4663 39.6444 34.7863 38.9065L34.7863 38.9064L34.7831 38.905C34.5357 38.7963 34.3059 38.6954 34.0979 38.6033ZM19.7796 36.046C19.7796 36.046 20.8147 38.4815 20.8147 40.4908C20.8147 41.1375 20.8525 41.8346 20.8917 42.5558C20.9742 44.0755 21.0625 45.702 20.8147 47.1886C20.4494 49.3806 19.7796 51.5117 18.9272 53.3383C18.0747 55.165 16.8569 56.5654 15.9436 57.4788C15.0303 58.3921 13.021 60.1579 11.7423 59.7316C10.6904 59.381 9.35662 57.6292 8.27256 56.2053C8.03893 55.8984 7.8169 55.6068 7.61178 55.3477C6.58935 54.0562 6.37538 52.0989 6.17133 50.2323C6.1445 49.9868 6.11784 49.743 6.08954 49.5024C5.84598 47.4321 6.57668 44.4486 7.61178 42.7437C8.64689 41.0388 9.90574 39.6993 12.2294 38.4815C14.5531 37.2637 19.7796 36.046 19.7796 36.046Z" fill="url(#paint0_linear_32_1675)"/>
<ellipse cx="13.8826" cy="45.849" rx="2.61821" ry="3.59243" transform="rotate(7.11471 13.8826 45.849)" fill="url(#paint1_linear_32_1675)"/>
<defs>
<linearGradient id="paint0_linear_32_1675" x1="0.955405" y1="4.15707" x2="115.232" y2="6.07169" gradientUnits="userSpaceOnUse">
<stop offset="0.03125" stop-color="#B8860B"/>
<stop offset="0.235169" stop-color="#FFD700"/>
<stop offset="0.505033" stop-color="#B8860B"/>
<stop offset="0.749821" stop-color="#DCB900"/>
<stop offset="1" stop-color="#B8860B"/>
</linearGradient>
<linearGradient id="paint1_linear_32_1675" x1="11.3069" y1="42.6894" x2="16.3944" y2="42.7259" gradientUnits="userSpaceOnUse">
<stop offset="0.03125" stop-color="#B8860B"/>
<stop offset="0.235169" stop-color="#FFD700"/>
<stop offset="0.505033" stop-color="#B8860B"/>
<stop offset="0.749821" stop-color="#DCB900"/>
<stop offset="1" stop-color="#B8860B"/>
</linearGradient>
</defs>
</svg>
